#!OML:ASF F:\VICON\USERDATA\Patient Classification 1\PLAYGROUND\JustinFriday\JustinFriday.ASF
:FULLY-SPECIFIED
:DEGREES
2874
root -28.1031 17.8298 -9.62577 337.172 69.7214 -24.2569
lowerback 22.8336 -3.85704 -2.04323
upperback 6.27866 -4.99712 1.7848
thorax -5.45306 -2.29628 4.41186
lowerneck -2.72077 -9.36585 -8.11448
upperneck 9.01026 -13.7584 17.0404
head 4.907 -6.31845 5.76585
rclavicle -5.56597e-014 7.15625e-015
rhumerus -23.1709 -32.2217 -68.9741
rradius 18.5027
rwrist 26.1642
rhand -18.0622 31.2451
rfingers 7.12502
rthumb 8.21026 1.42458
lclavicle -5.56597e-014 7.15625e-015
lhumerus 42.5361 8.15108 47.3835
lradius 23.6028
lwrist -15.2842
lhand -14.7371 -4.80903
lfingers 7.12502
lthumb 11.4183 24.8601
rfemur -7.59313 6.37551 27.8343
rtibia 16.8116
rfoot -5.06828 7.1722
rtoes 38.3564
lfemur -42.2309 13.112 -7.75738
ltibia 89.7989
lfoot -10.28 -9.2545
ltoes 7.47305
2875
root -28.1124 17.8229 -9.67437 347.727 70.0558 -14.3906
lowerback 21.4172 -3.21242 -4.501
upperback 5.59985 -4.78224 1.17283
thorax -5.32581 -2.19763 5.01259
lowerneck -3.25948 -9.59537 -10.6349
upperneck 9.89352 -14.2853 19.1521
head 5.6912 -6.49812 6.77583
rclavicle -2.50469e-014 5.56597e-015
rhumerus -23.0596 -28.8874 -68.3305
rradius 18.427
rwrist 20.9866
rhand -17.9878 30.3534
rfingers 7.12502
rthumb 8.28215 0.53573
lclavicle -2.50469e-014 5.56597e-015
lhumerus 43.0056 9.09911 50.9293
lradius 23.0517
lwrist -18.3455
lhand -15.0235 -4.75314
lfingers 7.12502
lthumb 11.1421 24.931
rfemur -9.27046 5.64666 23.7807
rtibia 17.1393
rfoot -4.36415 8.44801
rtoes 39.291
lfemur -41.4399 12.3332 -12.271
ltibia 87.0137
lfoot -9.67588 -8.98548
ltoes 13.9073
2876
root -28.1296 17.7637 -9.63473 339.306 69.0261 -20.9963
lowerback 23.6234 -2.82769 -3.1053
upperback 6.09306 -3.86864 2.39981
thorax -6.02679 -1.72105 5.45976
lowerneck -3.11495 -10.0442 -11.2609
upperneck 8.9087 -14.7809 19.4587
head 5.52046 -6.79902 6.92265
rclavicle 4.25399e-014 -2.94201e-014
rhumerus -22.5862 -25.0955 -67.7491
rradius 18.5931
rwrist 14.1646
rhand -17.8787 29.4795
rfingers 7.12502
rthumb 8.38736 -0.333967
lclavicle 4.25399e-014 -2.94201e-014
lhumerus 42.3349 7.40648 50.2775
lradius 24.0154
lwrist -15.866
lhand -15.091 -3.23617
lfingers 7.12502
lthumb 11.077 26.4515
rfemur -7.41553 8.38765 26.9215
rtibia 18.5786
rfoot -5.87273 7.10579
rtoes 40.7967
lfemur -37.0885 12.165 -8.21127
ltibia 84.5539
lfoot -8.03197 -10.9697
ltoes 20.7948
2877
root -28.0948 17.7453 -9.79842 341.864 69.0203 -19.9378
lowerback 22.1561 -3.82786 -1.92641
upperback 5.70893 -4.89987 2.69333
thorax -5.66035 -2.25414 5.28472
lowerneck -3.04357 -9.9604 -10.4271
upperneck 6.99601 -14.2263 17.2796
head 4.60641 -6.68251 6.15203
rclavicle -1.51076e-014 3.02153e-014
rhumerus -20.5041 -20.2287 -68.1795
rradius 18.3836
rwrist 9.40972
rhand -17.9587 28.6906
rfingers 7.12502
rthumb 8.3102 -1.12598
lclavicle -1.51076e-014 3.02153e-014
lhumerus 38.6167 6.11561 46.0437
lradius 26.85
lwrist -10.0104
lhand -15.5687 -0.674685
lfingers 7.12502
lthumb 10.6163 29.0371
rfemur -9.95899 6.65798 25.1592
rtibia 19.605
rfoot -4.05656 11.1096
rtoes 43.6509
lfemur -37.1738 10.0713 -9.83307
ltibia 81.9069
lfoot -6.4188 -9.23264
ltoes 25.3215
2878
root -28.1207 17.705 -9.79369 340.794 67.8561 -20.8965
lowerback 22.5396 -3.65034 -2.00498
upperback 5.35955 -4.70086 2.75141
thorax -6.24718 -2.13982 5.39534
lowerneck -3.26124 -9.48691 -11.137
upperneck 8.87992 -13.9294 18.8157
head 5.33672 -6.4051 6.78114
rclavicle -3.00165e-014 1.27222e-014
rhumerus -20.8629 -17.9563 -68.8522
rradius 18.3858
rwrist 5.83284
rhand -18.1222 27.9498
rfingers 7.12502
rthumb 8.15238 -1.87293
lclavicle -3.00165e-014 1.27222e-014
lhumerus 38.6638 9.01866 49.3893
lradius 25.5261
lwrist -15.5208
lhand -15.5334 -2.4256
lfingers 7.12502
lthumb 10.6503 27.2845
rfemur -9.81505 7.25028 26.476
rtibia 19.919
rfoot -5.60509 10.039
rtoes 41.4828
lfemur -35.0698 9.39746 -8.63779
ltibia 79.2189
lfoot -7.16252 -9.75817
ltoes 18.9055
2879
root -28.1636 17.6552 -9.73377 341.596 67.1068 -19.425
lowerback 22.1919 -3.35819 -5.16631
upperback 5.90277 -4.94955 3.55705
thorax -5.07286 -2.30239 8.08901
lowerneck -3.72789 -8.81 -10.9869
upperneck 8.80705 -12.894 18.2127
head 5.17681 -5.90416 6.64951
rclavicle 6.1822e-014 -2.06736e-014
rhumerus -18.9751 -13.4953 -69.4957
rradius 18.2103
rwrist 1.5006
rhand -18.2471 27.0657
rfingers 7.12502
rthumb 8.03189 -2.76172
lclavicle 6.1822e-014 -2.06736e-014
lhumerus 37.7437 12.7216 51.371
lradius 25.2763
lwrist -18.6549
lhand -15.5244 -3.28664
lfingers 7.12502
lthumb 10.6589 26.423
rfemur -9.495 9.22118 26.6477
rtibia 20.6276
rfoot -7.37374 8.65881
rtoes 40.0644
lfemur -32.4539 8.85001 -8.34229
ltibia 76.3265
lfoot -7.6237 -8.94987
ltoes 12.6474
2880
root -28.1449 17.6446 -9.84731 343.638 67.0177 -18.3917
lowerback 21.2682 -1.92841 -3.99279
upperback 5.61031 -2.7951 3.90777
thorax -5.32818 -1.23545 7.22877
lowerneck -2.80573 -11.2444 -7.97703
upperneck 5.78304 -15.874 16.5188
head 4.17775 -7.51085 5.40024
rclavicle -6.79844e-014 2.42517e-014
rhumerus -20.4963 -15.4363 -66.6054
rradius 18.8938
rwrist -1.71798
rhand -18.4061 25.9594
rfingers 7.12502
rthumb 7.87835 -3.87378
lclavicle -6.79844e-014 2.42517e-014
lhumerus 40.5006 9.77741 55.6383
lradius 25.8559
lwrist -19.2621
lhand -15.9689 -2.81055
lfingers 7.12502
lthumb 10.2302 26.9207
rfemur -11.2995 6.90541 25.4873
rtibia 21.5003
rfoot -5.95707 11.4952
rtoes 41.0431
lfemur -31.862 7.48284 -9.55108
ltibia 73.3345
lfoot -6.4127 -10.9811
ltoes 19.3709
2881
root -28.1417 17.595 -9.85677 342.547 66.2199 -19.4532
lowerback 21.3199 -2.21971 -4.12369
upperback 5.36372 -3.23123 3.78841
thorax -5.55762 -1.44057 7.29339
lowerneck -2.71943 -10.3088 -7.31393
upperneck 6.52487 -14.7368 16.7773
head 4.21178 -6.89368 5.48458
rclavicle -6.06293e-014 2.50469e-014
rhumerus -20.5387 -13.3573 -67.8883
rradius 18.6316
rwrist -2.57432
rhand -18.6158 24.9416
rfingers 7.12502
rthumb 7.67601 -4.89909
lclavicle -6.06293e-014 2.50469e-014
lhumerus 37.371 8.54534 51.9284
lradius 28.1367
lwrist -16.1219
lhand -16.6046 -1.71033
lfingers 7.12502
lthumb 9.61687 28.0502
rfemur -11.8091 10.5508 25.8833
rtibia 22.7872
rfoot -7.25314 10.7513
rtoes 42.6212
lfemur -29.9683 7.42367 -8.67086
ltibia 70.3049
lfoot -6.80176 -11.352
ltoes 13.9157
2882
root -28.1706 17.5613 -9.82524 342.45 65.4177 -18.6583
lowerback 22.6358 -1.23742 -4.14824
upperback 5.25976 -1.96891 3.86543
thorax -6.53944 -0.775992 7.15766
lowerneck -3.52278 -11.0868 -7.3706
upperneck 6.62592 -15.7737 16.5433
head 4.49387 -7.36812 5.27236
rclavicle 2.44505e-014 -1.59028e-015
rhumerus -21.714 -14.686 -66.6783
rradius 18.9275
rwrist -3.23564
rhand -18.7713 24.0477
rfingers 7.12502
rthumb 7.52593 -5.79838
lclavicle 2.44505e-014 -1.59028e-015
lhumerus 37.0963 5.60035 50.673
lradius 29.5815
lwrist -12.9714
lhand -17.2132 -1.09423
lfingers 7.12502
lthumb 9.02958 28.6925
rfemur -11.414 12.9584 26.0147
rtibia 23.9644
rfoot -8.44754 10.2655
rtoes 43.0606
lfemur -26.8977 7.29097 -8.24688
ltibia 67.1712
lfoot -7.7802 -11.1371
ltoes 7.09151
2883
root -28.1607 17.5609 -9.85375 344.005 65.2359 -17.1597
lowerback 21.5856 -1.28872 -5.55841
upperback 5.76625 -2.27878 4.25164
thorax -5.30329 -0.980647 8.41697
lowerneck -4.72574 -11.1994 -7.08413
upperneck 6.63213 -15.8884 16.2268
head 4.66453 -7.37341 5.05058
rclavicle -1.20265e-013 3.97569e-014
rhumerus -20.2382 -14.9304 -66.634
rradius 18.7074
rwrist -2.36344
rhand -18.912 23.2101
rfingers 7.12502
rthumb 7.39006 -6.64084
lclavicle -1.20265e-013 3.97569e-014
lhumerus 37.5196 9.05176 54.3187
lradius 28.9895
lwrist -16.4459
lhand -17.669 -2.21982
lfingers 7.12502
lthumb 8.58973 27.5854
rfemur -12.0539 10.4225 25.8713
rtibia 25.279
rfoot -8.86454 10.3041
rtoes 41.0204
lfemur -24.9631 6.12266 -8.99759
ltibia 63.9436
lfoot -8.83139 -10.2393
ltoes 1.46113
2884
root -28.1465 17.5298 -9.88349 343.755 64.969 -17.4205
lowerback 21.7061 -1.49038 -4.68624
upperback 5.38008 -2.40988 3.81852
thorax -5.83424 -1.02271 7.47689
lowerneck -4.16995 -11.6133 -5.64776
upperneck 6.42912 -16.5511 16.536
head 4.49898 -7.67948 4.90133
rclavicle -5.76476e-015 -1.82882e-014
rhumerus -23.7515 -19.0592 -66.144
rradius 23.1428
rwrist 1.61492
rhand -17.7264 21.4194
rfingers 7.12502
rthumb 8.53437 -8.3881
lclavicle -5.76476e-015 -1.82882e-014
lhumerus 37.3138 10.0807 55.9797
lradius 29.0019
lwrist -18.8763
lhand -18.1094 -2.76262
lfingers 7.12502
lthumb 8.16473 27.0596
rfemur -12.3905 10.1859 26.0565
rtibia 26.2372
rfoot -9.59315 10.4525
rtoes 41.7028
lfemur -23.1002 4.9297 -8.98202
ltibia 60.9844
lfoot -9.81862 -9.52188
ltoes -2.42946
2885
root -28.1616 17.4796 -9.97256 345.336 62.8156 -16.737
lowerback 21.2697 -1.08458 -4.20505
upperback 4.97389 -1.80087 3.73408
thorax -6.17246 -0.718742 6.94171
lowerneck -4.34997 -11.544 -4.5061
upperneck 6.10461 -16.4092 15.8445
head 4.25955 -7.61961 4.53829
rclavicle 3.89618e-014 1.98785e-015
rhumerus -23.9922 -18.275 -66.2953
rradius 23.323
rwrist 3.17945
rhand -17.9357 20.1142
rfingers 7.12502
rthumb 8.33236 -9.70143
lclavicle 3.89618e-014 1.98785e-015
lhumerus 35.0437 8.66102 54.2657
lradius 31.9381
lwrist -15.923
lhand -19.2489 -0.00356223
lfingers 7.12502
lthumb 7.06487 29.8585
rfemur -14.2381 11.8971 26.0066
rtibia 27.4093
rfoot -9.50183 11.1114
rtoes 42.3519
lfemur -22.1218 5.6431 -8.96855
ltibia 58.0671
lfoot -10.4837 -8.44213
ltoes -5.84938
2886
root -28.1731 17.4239 -9.98839 339.992 61.2826 -20.9937
lowerback 23.0316 -1.15216 -2.41099
upperback 5.30398 -1.41404 4.38891
thorax -6.81932 -0.518541 6.5944
lowerneck -5.27426 -11.4831 -4.16573
upperneck 7.0531 -16.4537 15.5498
head 4.65358 -7.54755 4.32263
rclavicle 4.94974e-014 -2.22639e-014
rhumerus -22.5885 -11.707 -67.7846
rradius 21.9024
rwrist -1.59338
rhand -19.2769 18.8613
rfingers 7.12502
rthumb 7.03791 -11.0017
lclavicle 4.94974e-014 -2.22639e-014
lhumerus 34.1184 10.0915 55.6333
lradius 32.6512
lwrist -17.1429
lhand -19.1762 -2.93797
lfingers 7.12502
lthumb 7.13502 26.9218
rfemur -12.4408 12.8713 28.9657
rtibia 27.6753
rfoot -10.1481 11.1904
rtoes 42.336
lfemur -18.6318 4.77425 -6.02486
ltibia 55.6491
lfoot -11.306 -8.42266
ltoes -3.03627
